<svg width="28" height="28" viewBox="0 0 28 28" fill="none" xmlns="http://www.w3.org/2000/svg">
<rect width="28" height="28" transform="translate(0 0.000976562)" fill="#01A4A5"/>
<path d="M14 24.501C15.3789 24.501 16.7443 24.2294 18.0182 23.7017C19.2921 23.174 20.4496 22.4006 21.4246 21.4256C22.3996 20.4506 23.1731 19.2931 23.7007 18.0192C24.2284 16.7452 24.5 15.3799 24.5 14.001C24.5 12.6221 24.2284 11.2567 23.7007 9.9828C23.1731 8.70888 22.3996 7.55137 21.4246 6.57636C20.4496 5.60134 19.2921 4.82792 18.0182 4.30024C16.7443 3.77257 15.3789 3.50098 14 3.50098C11.2152 3.50098 8.54451 4.60722 6.57538 6.57636C4.60625 8.54549 3.5 11.2162 3.5 14.001C3.5 16.7857 4.60625 19.4565 6.57538 21.4256C8.54451 23.3947 11.2152 24.501 14 24.501ZM14 26.251C10.7511 26.251 7.63526 24.9604 5.33794 22.663C3.04062 20.3657 1.75 17.2499 1.75 14.001C1.75 10.7521 3.04062 7.63624 5.33794 5.33892C7.63526 3.0416 10.7511 1.75098 14 1.75098C17.2489 1.75098 20.3647 3.0416 22.6621 5.33892C24.9594 7.63624 26.25 10.7521 26.25 14.001C26.25 17.2499 24.9594 20.3657 22.6621 22.663C20.3647 24.9604 17.2489 26.251 14 26.251Z" fill="white"/>
<path d="M14 2.62598C14.2321 2.62598 14.4546 2.71816 14.6187 2.88226C14.7828 3.04635 14.875 3.26891 14.875 3.50098V8.75098C14.875 8.98304 14.7828 9.2056 14.6187 9.36969C14.4546 9.53379 14.2321 9.62598 14 9.62598C13.7679 9.62598 13.5454 9.53379 13.3813 9.36969C13.2172 9.2056 13.125 8.98304 13.125 8.75098V3.50098C13.125 3.26891 13.2172 3.04635 13.3813 2.88226C13.5454 2.71816 13.7679 2.62598 14 2.62598ZM14 18.376C14.2321 18.376 14.4546 18.4682 14.6187 18.6323C14.7828 18.7964 14.875 19.0189 14.875 19.251V24.501C14.875 24.733 14.7828 24.9556 14.6187 25.1197C14.4546 25.2838 14.2321 25.376 14 25.376C13.7679 25.376 13.5454 25.2838 13.3813 25.1197C13.2172 24.9556 13.125 24.733 13.125 24.501V19.251C13.125 19.0189 13.2172 18.7964 13.3813 18.6323C13.5454 18.4682 13.7679 18.376 14 18.376ZM2.625 14.001C2.625 13.7689 2.71719 13.5464 2.88128 13.3823C3.04538 13.2182 3.26794 13.126 3.5 13.126H8.75C8.98206 13.126 9.20462 13.2182 9.36872 13.3823C9.53281 13.5464 9.625 13.7689 9.625 14.001C9.625 14.233 9.53281 14.4556 9.36872 14.6197C9.20462 14.7838 8.98206 14.876 8.75 14.876H3.5C3.26794 14.876 3.04538 14.7838 2.88128 14.6197C2.71719 14.4556 2.625 14.233 2.625 14.001ZM18.375 14.001C18.375 13.7689 18.4672 13.5464 18.6313 13.3823C18.7954 13.2182 19.0179 13.126 19.25 13.126H24.5C24.7321 13.126 24.9546 13.2182 25.1187 13.3823C25.2828 13.5464 25.375 13.7689 25.375 14.001C25.375 14.233 25.2828 14.4556 25.1187 14.6197C24.9546 14.7838 24.7321 14.876 24.5 14.876H19.25C19.0179 14.876 18.7954 14.7838 18.6313 14.6197C18.4672 14.4556 18.375 14.233 18.375 14.001Z" fill="white"/>
</svg>
